<?xml version="1.0" standalone="no"?>
<!DOCTYPE svg PUBLIC "-//W3C//DTD SVG 20010904//EN"
 "http://www.w3.org/TR/2001/REC-SVG-20010904/DTD/svg10.dtd">
<svg version="1.0" xmlns="http://www.w3.org/2000/svg"
 width="1199.000000pt" height="1199.000000pt" viewBox="0 0 1199.000000 1199.000000"
 preserveAspectRatio="xMidYMid meet">
<metadata>
Created by potrace 1.11, written by Peter Selinger 2001-2013
</metadata>
<g transform="translate(0.000000,1199.000000) scale(0.100000,-0.100000)"
fill="#000000" stroke="none">
<path d="M5800 11353 c-186 -21 -281 -37 -324 -54 -28 -12 -62 -25 -75 -30
-13 -6 -22 -11 -20 -14 2 -2 56 1 119 5 227 17 309 21 600 25 345 5 493 -7
760 -61 447 -90 775 -219 1250 -491 123 -70 151 -84 161 -81 13 4 11 6 -62 73
-24 22 -51 45 -60 50 -9 6 -61 40 -115 76 -112 75 -317 177 -479 238 -60 23
-121 47 -135 53 -175 73 -544 160 -820 194 -127 16 -706 28 -800 17z"/>
<path d="M7367 11033 c-4 -3 -7 -11 -7 -17 0 -6 5 -5 12 2 6 6 9 14 7 17 -3 3
-9 2 -12 -2z"/>
<path d="M7400 11010 c0 -5 5 -10 11 -10 5 0 7 5 4 10 -3 6 -8 10 -11 10 -2 0
-4 -4 -4 -10z"/>
<path d="M7612 10925 c9 -10 110 -63 225 -120 51 -26 95 -50 98 -55 7 -11 65
-31 65 -22 0 13 -180 112 -285 158 -22 10 -42 21 -45 24 -3 4 -18 10 -35 14
-16 4 -27 4 -23 1z"/>
<path d="M8046 10692 c48 -34 64 -44 64 -39 0 6 -87 67 -96 67 -4 0 11 -13 32
-28z"/>
<path d="M4590 10241 c-30 -10 -104 -39 -165 -65 -185 -79 -266 -112 -360
-146 -108 -39 -217 -92 -265 -130 -19 -15 -51 -35 -70 -46 -42 -23 -39 -21
-120 -84 -154 -121 -248 -230 -307 -358 -46 -100 -56 -200 -38 -382 5 -47 7
-91 6 -99 -1 -7 2 -10 7 -7 6 3 12 0 15 -6 4 -10 7 -11 18 0 21 20 45 14 60
-15 22 -44 38 -57 53 -44 9 8 18 5 35 -10 21 -20 27 -20 104 -10 45 5 122 13
170 16 49 3 126 17 170 30 45 12 109 28 142 34 112 21 286 73 365 108 110 50
253 82 236 54 -10 -16 66 7 169 50 55 23 181 70 280 104 99 35 243 88 319 119
77 31 145 56 153 56 7 0 13 5 13 11 0 5 4 8 9 5 5 -3 48 31 95 76 l87 81 -38
39 c-35 36 -101 79 -88 57 4 -5 -3 -9 -15 -9 -14 0 -19 4 -15 13 4 6 1 5 -7
-4 -13 -16 -21 -17 -263 -38 -125 -11 -239 -2 -243 19 -1 9 18 29 48 48 27 18
50 37 50 42 0 5 -19 14 -42 20 -24 5 -65 21 -93 35 -27 13 -77 31 -110 38 -33
8 -74 21 -90 29 -17 8 -42 18 -56 21 -14 4 -38 18 -54 31 -16 14 -32 23 -36
20 -5 -2 -13 5 -19 16 -6 11 -17 20 -25 20 -8 0 -15 4 -15 10 0 18 -65 27
-174 23 -60 -1 -107 -1 -105 1 8 7 215 89 255 101 23 7 51 19 63 27 19 13 16
14 -34 10 -61 -5 -68 0 -27 22 24 14 25 15 6 16 -27 0 -213 -69 -235 -87 -8
-7 -23 -13 -32 -13 -9 0 -17 -4 -17 -9 0 -10 -69 -25 -77 -17 -3 3 5 10 18 16
30 14 63 32 80 47 8 6 32 16 54 23 51 16 146 61 163 77 7 7 20 13 27 13 8 0
17 5 20 10 3 6 5 10 3 9 -2 0 -28 -9 -58 -18z"/>
<path d="M5520 9816 c0 -2 8 -10 18 -17 15 -13 16 -12 3 4 -13 16 -21 21 -21
13z"/>
<path d="M5722 9663 c-10 -4 -4 -15 19 -39 l33 -34 28 27 c35 33 35 40 1 41
-16 1 -37 3 -48 5 -11 3 -26 2 -33 0z"/>
<path d="M5773 9576 c-91 -94 -125 -133 -103 -120 8 5 20 9 25 9 6 0 9 8 9 18
-1 10 5 17 16 17 10 0 22 9 25 20 4 11 11 18 16 15 5 -4 9 -2 9 4 0 5 10 8 21
6 21 -4 21 -4 3 17 -12 13 -13 18 -4 12 8 -5 92 -9 185 -9 170 0 205 -5 205
-30 0 -8 10 -16 23 -18 16 -3 13 -5 -10 -6 -18 0 -33 -5 -33 -10 0 -5 15 -14
33 -20 72 -22 255 -63 302 -67 28 -2 66 -6 85 -9 l35 -5 -30 15 c-16 8 -46 21
-65 30 -35 15 -35 15 35 10 l70 -5 -45 25 -45 26 35 -7 c19 -3 45 -8 58 -11
28 -7 28 0 -3 33 -66 71 -209 115 -385 120 -69 1 -163 7 -210 13 -47 5 -106 9
-132 9 -45 -1 -50 -5 -125 -82z m353 18 c18 -15 17 -15 -15 -10 -18 3 -43 6
-55 7 -19 1 -18 2 4 9 38 12 44 11 66 -6z"/>
<path d="M7463 9560 c-23 -5 -55 -16 -72 -24 -16 -9 -40 -16 -52 -16 -12 0
-19 -3 -16 -7 4 -3 -3 -11 -16 -17 -15 -8 -22 -21 -22 -41 0 -38 -30 -53 -96
-50 -61 3 -63 -9 -11 -63 99 -105 157 -177 157 -196 0 -6 5 -16 10 -21 13 -14
364 -314 397 -340 14 -11 83 -75 152 -142 119 -115 129 -123 166 -123 41 0 54
-9 155 -105 68 -64 94 -85 104 -85 6 0 11 -4 11 -9 0 -5 51 -48 113 -95 157
-120 201 -156 210 -172 4 -8 15 -14 23 -14 8 0 17 -7 20 -15 3 -8 16 -17 27
-21 12 -3 43 -19 69 -35 26 -16 59 -31 73 -35 14 -3 25 -10 25 -15 0 -5 9 -9
20 -9 11 0 23 -6 26 -14 3 -8 16 -17 30 -20 13 -4 24 -11 24 -16 0 -6 8 -10
18 -10 9 0 28 -6 42 -13 33 -17 70 -27 70 -19 0 4 19 8 41 10 33 2 45 -2 56
-18 22 -31 38 -24 63 25 13 25 29 50 37 56 7 6 13 18 13 26 0 7 7 16 15 19 8
4 15 12 15 18 0 7 11 35 25 62 23 46 35 93 49 192 12 84 -27 221 -116 410 -33
71 -98 176 -119 192 -4 3 -28 37 -54 75 -26 39 -59 82 -74 96 -14 14 -52 53
-83 86 -55 60 -57 61 -74 42 -25 -28 -26 -51 -5 -69 26 -21 101 -130 101 -147
0 -8 13 -41 29 -73 19 -38 26 -62 19 -66 -11 -7 -86 14 -103 28 -5 4 -19 8
-31 8 -13 0 -25 4 -28 9 -3 5 -15 7 -26 4 -20 -5 -107 44 -141 80 -18 19 -19
19 -91 -49 l-73 -69 63 67 c35 37 61 72 57 78 -4 6 -12 7 -18 3 -9 -5 -9 -3 0
8 10 12 8 15 -10 16 -12 1 -23 7 -25 13 -2 5 -7 10 -12 10 -5 0 -42 20 -82 44
-41 24 -84 47 -96 50 -12 4 -28 13 -35 19 -7 7 -33 23 -57 36 -25 13 -83 49
-129 80 -46 31 -91 61 -101 66 -10 6 -24 16 -31 21 -8 6 -41 25 -73 43 -67 36
-180 110 -214 140 -19 17 -21 24 -12 41 9 17 8 21 -7 27 -10 4 -21 11 -24 15
-6 9 -167 28 -224 27 -16 -1 -49 -5 -72 -9z"/>
<path d="M8580 9461 c0 -5 35 -47 78 -93 44 -46 100 -114 125 -153 77 -114 93
-131 112 -115 9 7 20 21 26 31 8 15 6 17 -8 12 -10 -3 -15 -2 -10 2 6 7 -306
325 -319 325 -2 0 -4 -4 -4 -9z"/>
<path d="M5510 9110 c-216 -27 -234 -31 -270 -64 -32 -28 -33 -28 -10 -3 l25
29 -25 -6 c-14 -3 -52 -10 -85 -16 -83 -15 -260 -65 -382 -106 -56 -20 -108
-32 -114 -28 -7 4 -9 3 -6 -3 6 -10 -129 -73 -157 -73 -7 0 -20 -8 -27 -17
-12 -15 -12 -16 1 -8 8 5 20 10 25 11 6 1 41 14 78 29 95 37 94 26 -1 -15
-274 -119 -614 -334 -850 -538 -24 -20 -50 -36 -58 -36 -8 1 -14 -4 -14 -12 0
-7 -8 -18 -17 -23 -10 -6 -14 -11 -9 -11 17 0 -17 -30 -35 -30 -11 0 -19 -7
-19 -15 0 -8 -4 -15 -8 -15 -4 0 -16 -14 -26 -30 -9 -17 -20 -28 -24 -26 -4 2
-13 -2 -20 -10 -7 -8 -10 -14 -6 -14 3 0 -8 -14 -25 -32 -17 -17 -31 -35 -31
-40 0 -4 -5 -8 -11 -8 -8 0 -8 5 1 15 7 8 10 15 7 15 -5 0 32 43 64 75 5 6 20
21 32 35 59 66 177 175 177 164 0 -4 24 18 54 48 30 31 58 53 62 49 4 -3 4 0
0 7 -4 7 -1 12 9 12 9 0 13 5 10 10 -3 6 0 10 8 10 8 0 24 9 36 19 23 20 179
129 209 146 10 6 31 19 47 31 17 12 37 24 45 27 10 4 11 6 2 6 -14 1 -168 -90
-199 -118 -10 -9 -41 -32 -68 -51 -28 -19 -51 -38 -53 -42 -2 -4 -9 -8 -16 -8
-18 0 -87 -61 -80 -71 3 -5 -2 -6 -10 -3 -19 7 -282 -248 -423 -411 -265 -306
-500 -740 -619 -1142 -31 -106 -85 -330 -97 -408 -3 -16 -10 -59 -16 -95 -32
-198 -37 -571 -10 -780 9 -73 10 -76 72 -140 l62 -65 -62 60 c-35 33 -63 56
-63 51 0 -26 73 -365 94 -436 48 -163 58 -195 76 -240 10 -25 35 -88 55 -140
44 -112 75 -180 92 -198 7 -7 13 -22 13 -32 0 -10 6 -25 14 -32 7 -8 17 -24
20 -36 4 -12 12 -22 17 -22 6 0 7 -4 4 -10 -3 -5 -2 -10 3 -10 5 0 9 -6 9 -13
0 -18 65 -127 73 -122 4 2 7 -1 7 -8 0 -22 45 -87 56 -80 6 3 7 1 3 -6 -6 -9
9 -38 46 -86 4 -5 38 -51 75 -101 38 -51 100 -127 138 -169 110 -123 125 -140
125 -146 0 -3 -31 -39 -69 -80 -61 -66 -201 -269 -201 -291 0 -4 -7 -16 -16
-25 -17 -20 -134 -200 -178 -276 -20 -34 -26 -51 -18 -59 13 -13 41 16 130
139 37 50 79 105 95 122 15 17 27 35 27 41 0 5 8 14 19 19 10 6 21 21 25 35 3
13 24 45 46 72 22 27 50 68 61 91 23 47 116 153 134 153 6 0 28 -17 49 -39
l37 -38 -60 -69 c-33 -38 -59 -73 -57 -79 8 -28 42 -13 102 46 l63 62 32 -32
32 -33 -69 -70 c-38 -38 -77 -77 -86 -86 -9 -8 -15 -19 -12 -24 3 -4 -2 -8
-11 -8 -12 0 -15 -5 -11 -16 4 -11 2 -15 -6 -12 -16 6 -43 -21 -43 -42 0 -8
-4 -15 -10 -16 -21 -2 -45 -16 -40 -24 3 -5 1 -11 -5 -15 -6 -4 -8 -10 -5 -15
3 -4 -2 -11 -11 -14 -8 -3 -13 -10 -10 -15 3 -5 -8 -11 -24 -14 -23 -5 -28
-10 -23 -23 4 -12 3 -15 -5 -10 -7 4 -12 1 -12 -9 0 -10 -5 -13 -12 -9 -7 4
-8 3 -4 -4 4 -7 2 -12 -5 -12 -7 0 -19 -7 -28 -15 -52 -48 -92 -76 -101 -70
-6 3 -7 0 -4 -9 6 -15 -6 -21 -29 -17 -5 1 -6 -2 -3 -7 3 -5 -9 -16 -25 -26
-17 -10 -28 -20 -25 -23 3 -3 16 2 28 11 13 9 39 27 60 41 20 13 42 32 50 42
7 10 19 19 26 21 10 2 212 147 362 261 25 19 67 60 94 92 78 91 81 91 168 27
126 -95 247 -170 260 -162 7 4 10 3 5 -1 -23 -26 389 -222 632 -299 96 -31
431 -111 506 -120 28 -4 66 -10 85 -13 l35 -6 -25 29 -25 29 32 -29 c19 -17
36 -25 44 -21 7 5 10 4 6 -2 -8 -13 82 -21 318 -30 245 -8 285 -2 344 50 30
28 38 32 21 12 -14 -16 -32 -35 -40 -42 -59 -50 682 100 749 151 11 8 13 8 7
-2 -4 -7 16 -2 47 12 30 13 59 21 64 17 6 -3 33 -51 61 -106 27 -55 59 -111
71 -124 12 -13 21 -28 21 -33 0 -5 4 -6 10 -3 6 3 7 -1 4 -9 -4 -11 0 -16 10
-16 9 0 15 -6 14 -12 -2 -7 5 -12 14 -12 10 1 14 -4 11 -11 -8 -22 37 -92 51
-78 3 3 11 -8 17 -26 6 -18 13 -30 16 -27 11 10 -21 74 -34 69 -9 -4 -11 0 -6
12 4 12 0 23 -12 31 -10 8 -16 16 -13 20 4 3 -9 37 -28 74 -19 38 -34 79 -34
90 0 12 -16 60 -36 106 -39 91 -38 100 12 110 25 5 32 2 40 -18 6 -13 21 -45
33 -71 20 -45 23 -48 54 -44 29 3 32 7 29 33 -2 16 -8 31 -13 32 -5 2 -9 12
-9 22 0 23 -21 72 -35 82 -11 8 -16 5 68 48 37 19 77 43 87 53 11 9 22 16 25
15 2 -2 39 20 82 48 43 28 126 82 185 119 62 38 105 72 101 78 -3 6 -1 7 6 3
13 -9 44 12 36 24 -3 4 2 7 9 6 15 -1 100 69 193 160 29 28 53 49 53 47 0 -11
235 233 300 312 41 50 77 92 80 95 5 5 50 65 113 152 15 20 27 40 27 44 0 3
15 27 33 53 83 116 256 458 321 633 50 136 101 317 130 461 26 128 56 336 56
390 l0 31 -47 -44 -48 -45 50 53 50 53 -1 217 c0 119 -4 248 -8 286 -7 63 -12
73 -54 120 -26 28 -35 41 -21 28 14 -12 29 -19 32 -15 4 3 7 -1 7 -10 0 -9 5
-19 11 -23 15 -9 5 71 -28 231 -24 119 -73 298 -80 291 -2 -1 6 -42 17 -90 12
-48 20 -92 18 -98 -2 -6 -12 25 -22 68 -10 44 -22 84 -26 89 -4 6 -22 55 -40
110 -18 55 -36 105 -40 110 -5 6 -11 23 -14 38 -3 16 -18 56 -34 90 -17 34
-39 82 -51 107 -62 133 -234 416 -345 565 -115 155 -165 214 -306 360 -63 66
-95 102 -71 80 59 -54 238 -238 291 -300 55 -65 68 -77 42 -38 -35 50 -181
210 -283 309 -406 396 -885 668 -1444 823 -93 26 -166 41 -409 86 l-29 5 19
-22 19 -23 -25 22 c-20 17 -47 25 -115 33 -103 11 -558 11 -655 0z m851 -107
c13 -16 12 -17 -3 -4 -10 7 -18 15 -18 17 0 8 8 3 21 -13z m249 -248 c69 -69
122 -125 120 -125 -3 0 -61 56 -130 125 -69 69 -122 125 -120 125 3 0 61 -56
130 -125z m-535 -25 c386 -33 729 -128 1064 -294 80 -39 172 -89 205 -110 32
-20 67 -38 77 -39 10 -1 16 -4 14 -7 -2 -4 9 -17 26 -29 l30 -22 25 20 c55 43
116 36 188 -23 36 -30 20 -41 -27 -17 -20 10 -46 21 -58 24 -22 6 -79 -17 -79
-31 0 -5 29 -29 64 -55 65 -48 86 -65 180 -147 62 -54 168 -160 187 -187 8
-11 34 -26 59 -34 25 -8 44 -20 42 -27 -1 -7 3 -12 9 -12 7 0 9 -10 5 -26 -6
-21 5 -40 61 -112 38 -48 91 -120 117 -161 105 -161 252 -451 288 -570 7 -24
31 -64 52 -90 35 -40 36 -42 7 -16 -32 29 -32 29 -22 5 21 -49 80 -276 95
-365 37 -218 45 -290 52 -450 11 -293 -33 -640 -115 -910 -150 -495 -401 -909
-763 -1261 -95 -93 -206 -190 -268 -235 -72 -53 -197 -136 -245 -164 -27 -15
-53 -32 -56 -37 -3 -6 -10 -10 -15 -10 -16 -1 -54 -21 -54 -29 0 -4 -12 -10
-27 -14 -14 -3 -38 -15 -51 -26 -14 -10 -30 -19 -36 -19 -7 0 -42 -16 -79 -34
-37 -19 -70 -35 -72 -35 -3 -1 -21 -8 -41 -16 -20 -8 -45 -15 -56 -15 -10 0
-16 -4 -13 -10 6 -9 1 -11 -37 -14 -7 -1 -15 -4 -18 -7 -10 -12 -151 -49 -162
-43 -7 4 -8 3 -4 -4 4 -7 1 -12 -9 -12 -9 0 -26 -5 -38 -12 -12 -6 -31 -12
-42 -13 -11 -1 -79 -14 -151 -28 -437 -88 -964 -65 -1359 60 -18 5 -19 4 -5
-13 12 -15 10 -15 -10 2 -14 12 -56 32 -95 44 -143 46 -450 186 -524 239 -16
12 -32 21 -35 21 -9 0 -218 144 -300 207 -89 67 -354 325 -442 428 -32 39 -62
72 -65 75 -27 23 -224 344 -286 466 -79 156 -113 204 -50 72 48 -102 87 -187
103 -228 l15 -35 -28 31 c-15 17 -33 39 -39 50 -7 10 -15 16 -18 13 -8 -8 21
-84 44 -119 10 -14 30 -50 46 -80 70 -137 265 -388 437 -563 31 -33 56 -62 54
-64 -7 -6 -257 238 -296 289 -199 258 -270 364 -366 541 -71 132 -163 349
-157 371 5 20 5 20 13 0 7 -18 4 44 -6 107 -3 20 1 28 16 32 11 3 19 9 18 14
-1 4 -1 14 0 22 1 11 4 11 18 0 15 -12 16 -12 8 1 -5 8 -10 31 -11 50 -1 19
-18 107 -37 195 -66 299 -84 634 -52 939 19 176 28 229 70 396 60 236 122 401
230 608 36 68 65 130 65 138 0 8 4 14 9 14 13 0 86 123 82 140 -1 8 0 12 5 8
4 -5 12 1 18 11 42 71 214 277 338 403 94 95 230 218 242 218 4 0 36 25 71 55
36 30 69 55 73 55 16 0 71 53 66 62 -7 11 114 127 132 128 6 0 17 -6 23 -14
10 -11 7 -17 -11 -30 -42 -29 0 -16 60 18 55 33 203 105 246 120 10 3 17 9 14
12 -3 3 30 40 74 82 101 98 110 104 31 21 -35 -35 -63 -70 -63 -77 0 -7 -4
-11 -9 -8 -5 3 -11 0 -14 -8 -4 -10 7 -8 43 7 26 12 45 26 42 31 -3 5 0 6 7 2
7 -5 35 1 64 13 61 23 232 70 367 100 241 53 566 73 825 51z m-1172 -24 c-10
-13 -20 -22 -22 -20 -4 4 29 44 36 44 2 0 -4 -11 -14 -24z m-113 -140 c0 -2
-8 -10 -17 -17 -16 -13 -17 -12 -4 4 13 16 21 21 21 13z m-1420 -601 c0 -3 -9
-15 -20 -27 -21 -23 -28 -7 -7 17 12 14 27 20 27 10z m-60 -80 c-6 -15 -13
-25 -16 -23 -2 3 1 17 7 32 7 14 14 24 16 22 2 -2 -1 -16 -7 -31z m-59 -68
c-10 -9 -11 -8 -5 6 3 10 9 15 12 12 3 -3 0 -11 -7 -18z m4917 -5 c2 -7 -2
-10 -12 -6 -9 3 -16 11 -16 16 0 13 23 5 28 -10z m-5336 -944 c-8 -8 -9 -4 -5
13 4 13 8 18 11 10 2 -7 -1 -18 -6 -23z m278 29 c0 -2 -17 -19 -37 -38 l-38
-34 34 38 c33 34 41 42 41 34z m-80 -80 c0 -2 -17 -19 -37 -38 l-38 -34 34 38
c33 34 41 42 41 34z m-80 -80 c0 -2 -10 -12 -22 -23 l-23 -19 19 23 c18 21 26
27 26 19z m5740 -42 c19 -19 32 -35 29 -35 -3 0 -20 16 -39 35 -19 19 -32 35
-29 35 3 0 20 -16 39 -35z m95 -95 c27 -27 47 -50 44 -50 -3 0 -27 23 -54 50
-27 28 -47 50 -44 50 3 0 27 -22 54 -50z m-5935 36 c0 -2 -8 -10 -17 -17 -16
-13 -17 -12 -4 4 13 16 21 21 21 13z m-80 -79 c0 -1 -37 -38 -82 -82 l-83 -80
80 83 c74 76 85 87 85 79z m6298 -28 c-3 -8 -7 -3 -11 10 -4 17 -3 21 5 13 5
-5 8 -16 6 -23z m-207 -6 c13 -16 12 -17 -3 -4 -10 7 -18 15 -18 17 0 8 8 3
21 -13z m59 -58 c13 -14 21 -25 18 -25 -2 0 -15 11 -28 25 -13 14 -21 25 -18
25 2 0 15 -11 28 -25z m80 -969 c0 -2 -8 -10 -17 -17 -16 -13 -17 -12 -4 4 13
16 21 21 21 13z m-130 -129 c0 -2 -15 -16 -32 -33 l-33 -29 29 33 c28 30 36
37 36 29z m-6104 -79 l29 -33 -32 29 c-31 28 -38 36 -30 36 2 0 16 -15 33 -32z
m6024 -1 c0 -2 -15 -16 -32 -33 l-33 -29 29 33 c28 30 36 37 36 29z m-70 -70
c0 -2 -12 -14 -27 -28 l-28 -24 24 28 c23 25 31 32 31 24z m-5768 -91 c7 4 10
4 6 -1 -4 -4 -3 -16 3 -27 10 -18 11 -19 23 -2 9 12 15 14 20 5 4 -6 0 -14 -8
-17 -12 -5 -10 -10 11 -30 32 -29 32 -29 26 -1 -4 21 -4 21 10 -2 17 -29 11
-55 -10 -46 -11 3 -13 1 -9 -10 3 -8 0 -15 -5 -15 -7 0 -9 11 -7 25 3 13 2 23
-1 22 -3 -1 -6 1 -6 4 0 12 -80 84 -90 81 -5 -2 -7 0 -2 4 4 4 -3 19 -15 33
-20 23 -19 22 9 -3 20 -18 36 -25 45 -20z m22 -92 c3 -8 2 -12 -4 -9 -6 3 -10
10 -10 16 0 14 7 11 14 -7z m5815 -28 c-6 -21 -12 -36 -14 -34 -3 2 0 21 6 42
6 21 12 36 14 34 3 -2 0 -21 -6 -42z m-25 -80 c-3 -15 -8 -25 -11 -23 -2 3 -1
17 3 31 3 15 8 25 11 23 2 -3 1 -17 -3 -31z m-5764 -93 c-11 -17 -11 -17 -6 0
3 10 6 24 7 30 0 9 2 9 5 0 3 -7 0 -20 -6 -30z m5661 -180 c-12 -20 -14 -14
-5 12 4 9 9 14 11 11 3 -2 0 -13 -6 -23z m-66 -143 c-14 -27 -28 -50 -30 -50
-3 0 6 23 20 50 14 28 28 50 30 50 3 0 -6 -22 -20 -50z m-50 -99 c-21 -43 -29
-39 -8 4 9 19 18 33 21 31 2 -2 -4 -18 -13 -35z m-43 -70 c-9 -16 -18 -28 -21
-26 -4 5 27 55 34 55 2 0 -4 -13 -13 -29z m-128 -206 c-9 -14 -18 -25 -20 -25
-2 0 2 11 8 25 6 14 15 25 20 25 5 0 1 -11 -8 -25z m-111 -146 c-182 -239
-533 -555 -772 -695 -97 -56 -223 -125 -258 -140 -118 -51 -198 -84 -207 -84
-20 0 10 17 89 50 44 19 82 37 85 40 3 3 25 14 49 25 24 10 57 32 73 47 17 15
34 25 39 22 13 -8 50 6 44 16 -3 5 5 10 17 12 13 2 22 9 20 16 -2 10 4 12 20
7 15 -4 18 -3 10 3 -17 12 -5 42 15 35 12 -5 12 -7 1 -14 -7 -5 -8 -9 -3 -9
18 0 86 51 80 60 -3 4 5 6 17 2 15 -3 19 -2 14 7 -4 6 -4 11 1 10 20 -3 27 2
13 12 -12 8 -10 9 8 4 15 -4 24 -2 28 8 3 9 19 21 35 28 18 7 28 17 25 25 -3
8 0 11 8 8 7 -3 32 12 57 33 24 21 74 63 112 93 37 29 67 58 67 63 0 6 3 8 6
5 3 -4 33 23 67 59 34 36 79 83 99 105 21 22 55 61 75 86 21 26 44 54 53 63 8
9 31 37 50 62 19 25 36 44 38 42 2 -2 -32 -49 -75 -106z m-915 -649 c-7 -11
-18 -20 -25 -20 -7 0 -13 -4 -13 -9 0 -5 -9 -11 -20 -14 -29 -8 -25 -2 23 32
51 36 50 36 35 11z m27 -69 c14 -6 8 -8 -22 -7 -24 0 -43 4 -43 8 0 10 39 9
65 -1z m-55 -21 c12 -8 11 -10 -7 -10 -13 0 -23 5 -23 10 0 13 11 13 30 0z
m-2215 -280 c33 -33 57 -60 54 -60 -2 0 -31 27 -64 60 -33 33 -57 60 -54 60 2
0 31 -27 64 -60z m1405 16 c0 -2 -8 -10 -17 -17 -16 -13 -17 -12 -4 4 13 16
21 21 21 13z m-50 -49 c0 -1 -24 -25 -52 -52 l-53 -50 50 53 c46 48 55 57 55
49z m-1265 -57 c10 -11 16 -20 13 -20 -3 0 -13 9 -23 20 -10 11 -16 20 -13 20
3 0 13 -9 23 -20z m2035 -10 c0 -5 -7 -10 -16 -10 -8 0 -12 5 -9 10 3 6 10 10
16 10 5 0 9 -4 9 -10z m-1889 -137 c13 -16 12 -17 -3 -4 -17 13 -22 21 -14 21
2 0 10 -8 17 -17z m40 -40 c13 -16 12 -17 -3 -4 -10 7 -18 15 -18 17 0 8 8 3
21 -13z"/>
<path d="M5635 8404 c-16 -2 -73 -9 -125 -15 -269 -31 -594 -133 -840 -264
-47 -24 -94 -49 -105 -54 -43 -19 -245 -157 -332 -228 -180 -144 -423 -404
-540 -578 -39 -58 -52 -79 -121 -190 -140 -226 -285 -657 -329 -975 -24 -183
-24 -544 1 -715 26 -179 106 -474 161 -600 8 -16 25 -57 39 -90 32 -78 112
-231 136 -263 11 -14 20 -30 20 -36 0 -6 11 -24 25 -40 14 -16 25 -33 25 -37
0 -11 70 -110 118 -167 79 -93 93 -106 50 -47 -127 172 -236 341 -292 452 -21
42 -21 40 17 64 17 12 23 18 12 14 -58 -22 -59 -21 -98 65 -20 45 -37 87 -37
94 0 7 18 34 41 59 39 45 39 46 17 52 -13 2 -41 6 -63 7 l-40 3 -27 80 c-30
89 -34 121 -15 128 7 4 6 6 -4 6 -18 1 -29 34 -54 169 -19 98 -20 92 13 93 15
0 36 4 47 9 13 6 4 7 -26 3 -26 -3 -49 -1 -52 3 -3 5 -8 64 -12 131 l-7 122
43 4 44 4 -42 1 c-53 2 -58 18 -49 135 3 45 9 124 12 175 3 51 8 112 12 134 7
40 9 42 71 63 l65 21 -35 21 c-58 37 -80 62 -70 81 5 9 14 44 21 77 18 85 99
332 114 348 7 7 13 20 13 28 0 16 78 192 96 216 5 6 16 9 25 6 15 -4 15 -3 2
6 -13 9 -12 17 10 58 44 85 102 173 114 173 6 0 23 -7 36 -16 20 -12 19 -10
-4 9 l-29 25 36 53 c20 30 47 67 60 84 24 29 25 29 86 19 68 -11 69 -9 35 58
-8 15 -14 34 -14 42 0 8 31 47 69 86 l69 72 52 -51 52 -52 -44 -47 c-24 -26
-55 -60 -68 -76 -14 -16 -33 -37 -44 -47 -10 -10 -26 -29 -35 -43 -9 -13 -44
-61 -78 -106 -35 -45 -63 -82 -63 -84 0 -1 -28 -50 -63 -108 l-63 -107 -43 25
c-60 34 -66 30 -9 -6 35 -22 46 -34 42 -47 -3 -10 10 8 28 40 264 464 600 792
1050 1026 331 173 665 257 1053 268 457 12 864 -83 1260 -295 182 -97 372
-236 526 -384 36 -34 76 -72 89 -83 l23 -20 -16 32 c-9 17 -22 33 -29 36 -8 3
6 24 39 58 l53 54 51 -50 c27 -28 66 -71 84 -97 l34 -47 -47 -40 c-26 -23 -51
-41 -56 -41 -6 0 -20 10 -33 22 -13 12 -23 16 -23 9 0 -12 25 -46 96 -130 16
-20 60 -83 96 -141 211 -338 322 -643 380 -1045 16 -113 16 -482 -1 -590 -33
-220 -80 -406 -146 -582 -39 -105 -165 -365 -189 -392 -8 -9 -22 -32 -31 -51
-8 -19 -27 -51 -42 -70 l-26 -35 34 35 c35 37 47 55 84 125 37 71 77 125 94
125 13 0 14 2 2 9 -12 8 -10 17 11 58 13 26 35 76 48 111 14 34 29 62 35 62 8
0 114 -40 124 -47 7 -5 -68 -187 -88 -213 -19 -24 -20 -24 -58 -7 -36 17 -37
17 -17 0 12 -10 30 -23 39 -28 16 -10 15 -15 -15 -70 -51 -94 -94 -155 -108
-155 -7 0 -10 -5 -7 -11 7 -11 -27 -69 -81 -135 -32 -40 -35 -42 -71 -33 -21
5 -48 9 -60 9 l-23 0 20 -52 c11 -29 20 -57 20 -63 0 -14 -123 -145 -136 -145
-6 0 -19 9 -29 20 -10 11 -21 18 -23 15 -3 -3 5 -17 19 -31 l24 -25 -55 -51
c-30 -27 -75 -66 -99 -86 l-43 -36 -39 44 c-21 25 -41 53 -44 63 -4 9 -11 17
-17 17 -13 0 -98 -61 -98 -70 0 -4 -12 -13 -27 -19 -35 -15 -78 -50 -70 -57 6
-6 25 7 136 90 l53 40 44 -50 c49 -55 51 -64 27 -87 -35 -30 -174 -127 -185
-127 -5 0 -27 -15 -48 -33 -21 -18 -73 -50 -116 -71 -74 -37 -78 -37 -92 -20
-26 36 -53 96 -49 108 3 7 28 25 56 39 60 32 161 96 161 102 0 3 -17 -5 -37
-17 -21 -12 -56 -30 -78 -41 -22 -11 -51 -27 -65 -36 -14 -10 -56 -31 -95 -48
-38 -18 -96 -43 -128 -58 -205 -92 -519 -165 -800 -185 -130 -10 -374 -1 -477
16 -173 29 -275 51 -389 86 -299 90 -579 234 -805 415 -44 35 -84 63 -90 63
-16 -1 57 -64 147 -127 42 -30 77 -57 77 -60 0 -12 -73 -113 -82 -113 -9 0
-100 61 -145 97 -22 18 -22 19 -7 77 8 32 13 61 9 64 -3 3 -30 -6 -61 -21 -46
-23 -59 -25 -77 -16 l-22 12 20 -23 c32 -36 179 -148 300 -228 133 -89 411
-228 555 -277 541 -185 1090 -203 1615 -54 202 57 228 68 213 88 -10 13 -10
14 2 4 8 -7 20 -13 27 -13 13 0 260 119 368 177 70 37 255 164 350 241 96 76
306 288 391 392 225 278 397 616 494 969 67 245 85 395 85 696 0 278 -14 407
-67 620 -78 317 -192 574 -371 844 -145 218 -282 370 -497 550 -63 53 -117 99
-120 102 -12 16 -155 109 -167 109 -7 0 -13 4 -13 9 0 8 -116 77 -225 133
-195 101 -510 199 -770 240 -98 15 -190 21 -375 23 -135 2 -258 1 -275 -1z
m109 -36 c3 -13 6 -44 6 -69 l0 -47 -67 -6 c-38 -4 -91 -9 -119 -12 -58 -7
-58 -7 -69 79 l-7 55 58 7 c33 3 68 7 79 9 11 2 41 4 66 5 41 1 47 -2 53 -21z
m266 -48 l0 -70 -125 0 -125 0 0 70 0 70 125 0 125 0 0 -70z m189 51 c31 -6
36 -12 54 -64 10 -31 22 -57 25 -57 4 0 23 23 42 50 22 30 41 48 50 45 8 -2
52 -12 98 -21 92 -19 90 -17 66 -101 -15 -51 -18 -54 -41 -48 -77 19 -225 45
-342 61 l-133 17 6 45 c3 25 6 55 6 67 0 21 3 22 68 18 37 -3 82 -8 101 -12z
m-726 -24 c3 -8 8 -38 12 -68 l7 -55 -117 -22 c-65 -13 -119 -21 -121 -19 -9
9 -34 120 -29 126 9 9 176 49 211 50 18 1 34 -5 37 -12z m-251 -104 c9 -38 16
-68 15 -69 -1 0 -60 -20 -132 -43 -71 -24 -175 -63 -230 -87 -55 -24 -102 -44
-106 -44 -6 0 -59 110 -59 122 0 9 126 68 159 74 29 6 38 2 75 -35 49 -48 56
-44 56 39 l0 48 78 26 c66 21 90 28 123 35 3 0 12 -29 21 -66z m1481 17 c64
-20 107 -39 107 -46 0 -8 -11 -38 -24 -69 -23 -51 -27 -54 -48 -45 -13 5 -62
21 -110 36 -66 20 -88 31 -88 43 0 36 32 123 43 118 7 -2 60 -19 120 -37z
m252 -96 c58 -25 105 -51 105 -58 0 -23 -62 -118 -73 -112 -7 2 -55 23 -107
46 -52 23 -96 43 -97 44 -8 7 44 126 54 126 7 0 60 -21 118 -46z m-2231 -110
c14 -29 26 -56 26 -61 0 -5 -16 -17 -35 -26 -19 -9 -64 -34 -101 -57 -36 -22
-67 -40 -69 -40 -1 0 -19 25 -39 56 -24 36 -34 60 -28 66 22 22 208 126 214
120 4 -4 18 -30 32 -58z m2454 -4 c46 -27 92 -52 103 -55 27 -9 24 -19 -18
-80 -40 -57 -53 -64 -73 -40 -7 8 -48 34 -91 57 -44 24 -79 47 -79 52 0 13 60
116 68 116 4 0 45 -22 90 -50z m-2690 -118 c38 -59 48 -82 34 -82 -5 0 -49
-29 -97 -65 -48 -36 -90 -65 -93 -65 -10 1 -77 96 -77 109 0 10 183 151 196
151 3 0 20 -22 37 -48z m2884 -3 c24 -16 58 -39 76 -51 36 -23 39 -41 18 -111
-8 -26 -12 -47 -10 -47 3 0 27 11 54 25 27 14 57 25 66 25 17 0 144 -120 144
-136 0 -6 -20 -30 -45 -54 l-45 -44 -22 20 c-110 98 -197 169 -273 223 -49 36
-92 66 -94 68 -7 5 68 113 79 113 5 0 29 -14 52 -31z m-3122 -126 c47 -56 72
-95 64 -101 -5 -5 -46 -41 -92 -82 l-83 -73 -50 49 c-27 26 -49 51 -49 55 0 8
182 168 190 169 3 0 12 -8 20 -17z m3697 -415 c25 -28 123 -169 123 -177 0 -4
-26 -22 -57 -40 l-57 -35 -23 30 c-12 16 -45 59 -72 96 l-50 66 47 41 c26 22
52 40 58 41 6 0 20 -10 31 -22z m162 -236 c26 -38 101 -172 101 -178 0 -2 -27
-17 -59 -34 l-60 -30 -19 28 c-32 45 -102 170 -102 180 0 9 96 71 110 72 3 0
16 -17 29 -38z m154 -283 c44 -96 44 -96 -4 -145 -23 -24 -40 -46 -37 -49 3
-4 31 -9 62 -12 31 -3 60 -11 65 -17 14 -19 63 -175 57 -184 -3 -5 -25 -12
-48 -16 -24 -4 -53 -9 -64 -12 -20 -5 -25 3 -53 93 -16 54 -55 156 -86 228
-30 71 -55 133 -55 137 0 4 26 21 57 37 66 33 64 35 106 -60z m182 -549 c15
-66 25 -123 23 -126 -10 -10 -131 -25 -138 -17 -8 10 -43 179 -44 212 -1 21 6
27 44 37 88 24 83 28 115 -106z m44 -279 c6 -63 9 -116 8 -118 -2 -1 -36 -6
-75 -9 l-72 -7 0 49 c0 27 -5 82 -10 123 -6 41 -9 76 -7 77 10 10 133 18 138
9 4 -5 12 -61 18 -124z m11 -265 c0 -69 -3 -127 -8 -129 -4 -3 -36 -3 -72 0
l-65 5 2 122 c1 66 2 122 2 124 1 1 33 2 71 2 l70 0 0 -124z m-12 -152 c12 -3
11 -34 -4 -160 -5 -40 -6 -41 -64 -59 -33 -10 -60 -22 -60 -26 0 -4 23 -24 51
-45 40 -29 49 -41 45 -58 -3 -12 -13 -55 -22 -96 -9 -41 -18 -76 -19 -78 -7
-8 -135 34 -135 44 0 7 11 63 24 126 14 62 30 165 36 228 6 63 13 121 15 128
3 9 20 11 62 6 32 -3 64 -7 71 -10z m-130 -525 c62 -15 61 -5 9 -161 -17 -54
-37 -98 -44 -98 -19 0 -123 48 -123 57 0 4 16 57 36 116 29 86 39 107 52 103
10 -2 41 -10 70 -17z m-3813 -1434 c22 -13 66 -39 97 -57 32 -18 58 -38 58
-43 0 -6 -9 -28 -21 -49 -11 -21 -18 -40 -15 -43 3 -3 15 15 28 41 12 25 26
46 30 46 4 0 45 -18 90 -39 46 -21 93 -42 106 -46 12 -3 22 -13 22 -20 0 -28
-45 -125 -58 -125 -7 0 -60 22 -117 49 -73 34 -105 55 -105 67 0 13 -3 14 -14
5 -10 -9 -28 -3 -77 25 -104 58 -148 88 -149 100 0 17 63 114 75 114 6 0 28
-11 50 -25z m2468 -170 c15 -31 27 -61 27 -69 0 -14 -147 -86 -175 -86 -8 0
-35 18 -59 40 -23 22 -46 37 -49 33 -4 -3 -7 -29 -7 -57 0 -28 -4 -56 -8 -62
-7 -10 -165 -64 -189 -64 -11 0 -43 91 -43 123 0 11 35 27 113 52 107 36 243
90 317 127 19 9 37 17 40 18 3 0 18 -25 33 -55z m-1933 -79 c57 -19 106 -40
108 -46 7 -21 -30 -130 -44 -130 -27 0 -234 74 -234 83 0 24 44 127 54 127 6
0 58 -16 116 -34z m258 -71 c59 -13 152 -29 207 -35 181 -19 165 -12 164 -78
-1 -90 2 -88 -116 -79 l-101 9 -18 64 c-18 60 -19 62 -37 47 -10 -9 -27 -32
-38 -50 -14 -22 -28 -33 -43 -33 -24 0 -176 37 -184 45 -10 9 33 135 46 135 7
0 62 -11 120 -25z m1174 -50 c15 -53 16 -61 3 -71 -13 -10 -109 -33 -207 -50
-40 -7 -39 -8 -53 96 l-7 45 99 22 c142 30 143 30 165 -42z m-264 -52 c5 -38
7 -71 3 -74 -8 -9 -241 -30 -252 -23 -5 3 -9 36 -9 74 l0 68 63 6 c34 3 76 8
92 9 96 12 92 14 103 -60z m-274 31 c3 -9 6 -42 6 -75 l0 -59 -128 0 c-71 0
-131 2 -133 4 -2 2 -3 36 -1 75 l4 71 123 0 c103 0 124 -3 129 -16z"/>
<path d="M6043 8082 c-35 -1 -63 -7 -63 -12 0 -6 6 -10 14 -10 8 0 21 -6 29
-14 12 -12 11 -36 -10 -171 -38 -252 -42 -268 -81 -280 -44 -13 -40 -22 16
-34 91 -19 152 -24 152 -12 0 6 -6 11 -14 11 -22 0 -39 28 -38 63 1 18 17 120
37 227 43 232 43 232 30 234 -5 1 -38 0 -72 -2z"/>
<path d="M6253 8044 c-3 -9 -16 -26 -29 -39 -29 -30 -39 -68 -27 -108 7 -26 0
-66 -35 -202 -24 -93 -67 -264 -97 -380 -37 -143 -67 -296 -95 -480 -68 -450
-100 -658 -108 -699 -6 -36 -10 -40 -56 -53 -79 -23 -139 -74 -175 -148 -26
-53 -31 -91 -11 -87 12 3 13 1 3 -9 -19 -19 -16 -71 6 -123 l20 -45 -36 -43
c-19 -24 -38 -45 -42 -48 -4 -3 -47 -50 -95 -105 -49 -55 -94 -105 -100 -110
-6 -6 -42 -46 -81 -90 -38 -44 -89 -101 -113 -127 -55 -58 -74 -86 -254 -373
-175 -278 -173 -274 -152 -290 11 -8 22 -15 25 -15 3 0 125 118 270 262 176
175 283 290 319 342 30 43 73 104 96 135 107 148 211 290 239 323 l30 38 98 0
c59 0 110 5 130 14 42 17 120 93 111 108 -5 7 -3 8 5 3 9 -5 10 -10 2 -18 -6
-6 -11 -16 -11 -21 1 -21 24 30 28 59 2 17 8 35 14 40 8 7 8 5 3 -5 -5 -9 -4
-12 1 -7 11 10 13 147 2 141 -4 -3 -8 2 -8 11 0 29 -69 125 -105 146 -39 23
-39 23 -25 100 5 30 11 63 13 74 2 11 7 27 10 35 3 8 42 179 87 380 65 290 88
414 111 605 38 312 32 289 77 282 20 -3 60 -9 88 -13 l51 -6 17 48 c9 26 15
49 13 51 -2 1 -17 -2 -33 -9 -19 -7 -54 -8 -97 -4 -66 7 -67 8 -67 36 0 34 27
62 85 92 103 53 165 126 165 193 0 88 -74 147 -192 152 -56 3 -70 1 -75 -13z
m133 -33 c47 -29 61 -79 38 -139 -17 -46 -90 -134 -127 -153 -17 -10 -18 -7
-11 53 4 39 13 67 23 74 13 10 13 14 2 28 -12 15 -11 42 5 129 7 32 26 35 70
8z m-396 -1804 c0 -2 -10 -12 -22 -23 l-23 -19 19 23 c18 21 26 27 26 19z
m-90 -90 c0 -2 -10 -12 -22 -23 l-23 -19 19 23 c18 21 26 27 26 19z m-99 -124
c13 -16 15 -20 4 -11 -18 17 -20 17 -50 -10 l-30 -27 28 31 c15 17 24 33 20
37 -3 4 -4 7 -1 7 2 0 15 -12 29 -27z m134 -3 c8 -13 -15 -13 -35 0 -12 8 -11
10 7 10 12 0 25 -4 28 -10z m-215 -53 c0 -2 -10 -12 -22 -23 l-23 -19 19 23
c18 21 26 27 26 19z m306 -169 l29 -33 -32 29 c-31 28 -38 36 -30 36 2 0 16
-15 33 -32z"/>
<path d="M5054 7965 c11 -8 23 -15 28 -15 13 0 10 -46 -12 -191 -38 -251 -44
-269 -86 -269 -25 0 -40 -15 -25 -25 15 -8 185 -33 194 -27 5 2 -5 13 -22 23
-17 10 -31 25 -31 32 0 11 47 275 78 440 l9 47 -76 0 c-69 -1 -74 -2 -57 -15z"/>
<path d="M5324 7928 c-3 -4 7 -10 21 -14 33 -8 33 -27 -6 -262 -32 -196 -38
-212 -86 -212 -13 0 -23 -4 -23 -9 0 -11 74 -28 158 -37 l57 -6 -34 29 -34 29
18 104 c9 58 28 158 41 224 34 170 37 161 -42 161 -36 0 -68 -3 -70 -7z"/>
<path d="M7140 7651 c0 -4 14 -12 31 -18 26 -10 30 -16 26 -35 -4 -13 -18 -97
-32 -188 -36 -230 -39 -240 -75 -240 -29 0 -48 -14 -31 -24 18 -11 186 -34
195 -26 4 4 -1 11 -13 15 -40 12 -42 34 -16 196 14 85 32 187 40 227 21 104
25 98 -55 98 -38 1 -70 -2 -70 -5z"/>
<path d="M7715 7420 c10 -11 20 -20 23 -20 3 0 -3 9 -13 20 -10 11 -20 20 -23
20 -3 0 3 -9 13 -20z"/>
<path d="M4140 7337 c0 -4 11 -12 25 -17 16 -6 25 -17 25 -31 0 -50 -64 -396
-76 -416 -9 -14 -24 -23 -39 -23 -42 0 -28 -18 23 -29 129 -27 194 -23 126 8
-26 12 -27 13 -20 79 3 37 19 138 36 226 16 87 30 170 30 185 0 25 -2 26 -65
26 -36 0 -65 -3 -65 -8z"/>
<path d="M4418 7312 c-10 -4 -34 -22 -53 -41 -133 -125 -136 -419 -5 -483 50
-24 96 -9 152 51 63 69 90 142 92 251 1 96 -11 140 -53 189 -23 26 -37 34 -72
37 -24 2 -52 0 -61 -4z m96 -45 c45 -61 14 -322 -50 -419 -29 -45 -66 -50
-108 -17 -24 19 -26 26 -26 100 0 44 7 114 16 156 37 181 109 258 168 180z"/>
<path d="M3614 6793 c-19 -43 -39 -87 -43 -98 -5 -11 -15 -36 -23 -55 -8 -19
-25 -70 -38 -112 -16 -54 -29 -78 -39 -78 -14 0 -14 -1 -1 -10 21 -13 24 -7
55 95 15 49 35 108 45 130 9 22 23 54 30 70 7 17 23 54 36 83 13 28 21 52 19
52 -3 0 -21 -35 -41 -77z"/>
<path d="M7819 6794 c-76 -43 -101 -113 -58 -168 15 -20 29 -26 57 -26 37 0
76 18 57 26 -5 2 -25 13 -44 25 -31 18 -33 23 -28 57 8 49 38 72 92 72 36 0
48 -5 69 -31 33 -39 34 -83 1 -152 -20 -41 -45 -69 -116 -127 -112 -93 -180
-164 -159 -168 98 -18 296 -49 301 -46 4 2 10 25 13 51 4 27 10 57 13 68 5 15
-2 12 -32 -14 -35 -30 -41 -32 -84 -26 -25 3 -65 11 -89 17 l-43 11 28 29 c15
16 64 51 107 76 127 75 166 122 166 200 0 55 -32 99 -93 127 -66 31 -100 31
-158 -1z"/>
<path d="M3460 6720 c8 -5 20 -10 25 -10 6 0 3 5 -5 10 -8 5 -19 10 -25 10 -5
0 -3 -5 5 -10z"/>
<path d="M3520 6700 c8 -5 20 -10 25 -10 6 0 3 5 -5 10 -8 5 -19 10 -25 10 -5
0 -3 -5 5 -10z"/>
<path d="M3378 6463 c7 -3 16 -2 19 1 4 3 -2 6 -13 5 -11 0 -14 -3 -6 -6z"/>
<path d="M3470 6416 c0 -3 -13 -73 -29 -154 -17 -81 -33 -176 -36 -212 -11
-115 -6 -109 -83 -113 l-67 -3 68 -2 68 -2 -1 -157 c-1 -204 7 -354 20 -388 5
-14 10 -34 10 -43 0 -9 9 -52 19 -95 l18 -78 -31 -14 -31 -14 32 6 c30 5 32 3
43 -38 23 -86 116 -334 152 -407 10 -18 8 -25 -8 -37 -18 -15 -18 -15 6 -10
23 5 28 0 53 -50 35 -73 77 -138 84 -132 2 3 -17 43 -44 89 -77 129 -119 227
-194 448 -79 232 -120 502 -118 765 2 198 10 277 50 478 17 87 28 161 25 164
-3 4 -6 3 -6 -1z"/>
<path d="M3690 6379 c-65 -26 -120 -111 -120 -184 0 -119 91 -195 190 -160 24
8 45 13 48 11 8 -9 -19 -110 -38 -142 -21 -33 -66 -58 -96 -52 -10 2 -31 22
-47 46 -40 59 -79 52 -63 -13 12 -47 87 -67 167 -45 136 38 230 352 144 482
-40 60 -117 84 -185 57z m140 -51 c37 -40 22 -175 -27 -243 -24 -32 -64 -40
-102 -21 -35 19 -44 42 -44 116 0 57 19 107 56 148 28 30 88 30 117 0z"/>
<path d="M7982 5706 c-41 -14 -71 -52 -72 -87 0 -29 12 -43 48 -53 21 -7 21
-6 11 18 -26 57 22 114 86 102 60 -12 84 -100 51 -181 -16 -38 -17 -39 -96
-39 -48 -1 -55 -3 -55 -21 0 -17 6 -20 40 -17 59 4 83 -5 100 -38 29 -57 11
-141 -38 -173 -15 -9 -45 -17 -67 -17 -33 0 -48 6 -72 30 -25 26 -29 36 -26
68 3 20 8 45 12 55 12 25 -11 21 -39 -8 -33 -32 -32 -75 1 -115 37 -43 74 -60
134 -60 66 0 108 18 148 64 26 30 32 45 32 82 0 51 -20 96 -52 118 l-22 16 21
15 c35 25 63 79 63 123 0 56 -43 105 -104 121 -54 13 -61 13 -104 -3z"/>
<path d="M6035 5610 c-3 -6 1 -7 9 -4 18 7 21 14 7 14 -6 0 -13 -4 -16 -10z"/>
<path d="M3791 5292 c-74 -40 -92 -130 -40 -202 25 -34 28 -45 18 -51 -24 -15
-33 -23 -67 -62 -43 -50 -44 -98 -2 -155 38 -53 60 -64 129 -65 98 -3 171 61
171 150 0 50 -11 75 -48 115 l-25 27 32 27 c38 32 61 73 61 110 0 36 -36 91
-70 109 -40 21 -118 19 -159 -3z m151 -33 c28 -28 30 -34 25 -80 -7 -59 -34
-109 -59 -109 -28 0 -97 50 -114 81 -22 43 -17 77 15 110 41 41 91 40 133 -2z
m-72 -272 c40 -32 57 -52 64 -79 13 -50 1 -85 -37 -108 -49 -30 -91 -26 -135
14 -33 31 -37 39 -37 85 0 45 4 54 40 91 21 22 42 40 45 40 3 -1 30 -20 60
-43z"/>
<path d="M3358 5133 c7 -3 16 -2 19 1 4 3 -2 6 -13 5 -11 0 -14 -3 -6 -6z"/>
<path d="M3054 4972 c3 -5 -1 -15 -9 -22 -8 -7 -14 -27 -14 -44 2 -30 2 -30 6
-3 2 15 9 27 14 27 5 0 8 -5 7 -11 -5 -18 30 -19 44 -1 11 15 11 15 -4 4 -20
-16 -35 2 -18 23 9 11 7 16 -11 25 -12 7 -19 8 -15 2z m21 -22 c-3 -5 -12 -10
-18 -10 -7 0 -6 4 3 10 19 12 23 12 15 0z"/>
<path d="M3066 4878 c3 -5 10 -6 15 -3 13 9 11 12 -6 12 -8 0 -12 -4 -9 -9z"/>
<path d="M3134 4800 c9 -32 39 -101 43 -97 2 3 -8 29 -22 58 -14 30 -23 47
-21 39z"/>
<path d="M7465 4570 c-108 -108 -155 -160 -145 -164 8 -2 49 -10 90 -16 118
-18 113 -15 105 -68 -9 -66 -28 -92 -67 -92 -21 0 -29 -3 -22 -10 14 -14 197
-40 208 -29 6 5 -3 11 -22 15 -18 4 -35 11 -38 16 -3 5 -2 38 1 73 7 58 10 65
29 65 12 0 32 -9 45 -21 12 -12 24 -19 27 -17 2 3 7 27 10 54 7 48 7 49 -13
32 -11 -10 -32 -18 -46 -18 -22 0 -27 5 -27 26 0 29 28 257 35 292 3 12 2 22
-2 22 -5 -1 -80 -72 -168 -160z m80 -50 c-8 -57 -17 -105 -19 -108 -6 -5 -136
17 -149 25 -5 3 33 48 84 99 51 51 94 92 96 91 1 -2 -4 -49 -12 -107z"/>
<path d="M3760 4455 c0 -3 8 -18 18 -33 11 -15 31 -46 47 -69 24 -37 45 -55
45 -38 0 6 -101 145 -106 145 -2 0 -4 -2 -4 -5z"/>
<path d="M4439 4375 c-32 -71 -33 -75 -20 -75 5 0 19 16 30 36 l22 36 62 -6
c56 -7 147 -25 155 -32 5 -3 -39 -69 -117 -174 -96 -129 -145 -223 -131 -250
28 -53 62 -16 159 180 49 99 105 205 126 235 20 31 35 58 32 61 -7 7 -234 54
-263 54 -21 0 -30 -10 -55 -65z"/>
<path d="M7825 4265 c-21 -34 -61 -78 -195 -217 -93 -97 -108 -121 -43 -72 18
14 38 22 45 18 8 -5 9 -2 5 10 -5 11 9 34 47 74 94 101 167 193 163 205 -2 6
-12 -2 -22 -18z"/>
<path d="M3940 4206 c0 -2 8 -10 18 -17 15 -13 16 -12 3 4 -13 16 -21 21 -21
13z"/>
<path d="M6666 4082 c-10 -30 -36 -225 -36 -269 0 -49 18 -58 26 -14 8 39 33
60 77 68 29 4 40 1 61 -20 35 -35 42 -85 22 -165 -20 -85 -50 -114 -110 -110
-37 3 -43 7 -61 45 -21 47 -40 59 -61 42 -20 -17 -17 -34 11 -67 47 -56 166
-61 237 -11 42 30 68 88 68 153 0 75 -23 121 -75 146 -49 24 -74 25 -122 5
-20 -8 -37 -14 -39 -12 -2 2 0 32 4 67 l7 65 66 -3 c59 -3 69 -1 97 23 18 15
32 35 32 45 0 18 -2 18 -35 4 -47 -19 -83 -18 -127 6 -34 18 -37 18 -42 2z"/>
<path d="M4076 4049 c3 -8 25 -30 47 -49 34 -28 39 -30 26 -11 -18 28 -83 81
-73 60z"/>
<path d="M5514 4006 c-76 -33 -137 -157 -150 -301 -9 -95 7 -146 60 -199 52
-53 96 -64 155 -40 52 20 84 59 106 125 53 157 -49 264 -204 214 -23 -8 -23
-7 -16 35 10 59 29 101 57 127 40 37 77 34 101 -7 24 -39 53 -55 73 -39 21 17
18 27 -20 65 -30 30 -40 34 -82 34 -27 -1 -63 -7 -80 -14z m67 -216 c35 -19
52 -68 45 -129 -14 -122 -47 -175 -108 -173 -59 2 -96 81 -84 181 8 66 19 87
59 111 36 22 59 25 88 10z"/>
<path d="M4008 3965 c-32 -29 -35 -30 -55 -10 -8 9 -18 13 -21 10 -3 -3 16
-28 44 -56 27 -27 50 -45 53 -38 2 6 -6 17 -18 25 -28 20 -27 32 6 66 33 35
27 37 -9 3z"/>
<path d="M4180 3957 c0 -2 15 -16 33 -33 l32 -29 -29 33 c-28 30 -36 37 -36
29z"/>
<path d="M7477 3902 c-10 -10 -17 -22 -17 -25 0 -11 39 16 44 30 8 19 -8 16
-27 -5z"/>
<path d="M7240 3641 c0 -5 5 -13 10 -16 6 -3 10 -2 10 4 0 5 -4 13 -10 16 -5
3 -10 2 -10 -4z"/>
<path d="M4590 8900 c-8 -5 -10 -10 -5 -10 6 0 17 5 25 10 8 5 11 10 5 10 -5
0 -17 -5 -25 -10z"/>
<path d="M4317 8756 c-91 -45 -144 -77 -126 -76 9 1 253 129 244 129 -5 0 -59
-24 -118 -53z"/>
<path d="M8460 7833 c0 -5 14 -24 31 -43 l30 -35 -27 43 c-26 41 -34 50 -34
35z"/>
<path d="M7393 2934 c-3 -9 0 -20 8 -25 8 -5 11 -9 7 -9 -13 0 15 -65 41 -93
l26 -28 -24 -18 c-23 -18 -24 -21 -11 -52 8 -18 15 -40 16 -48 2 -21 35 -128
101 -336 30 -93 58 -181 62 -195 8 -28 41 -41 41 -16 0 23 -149 616 -166 661
-31 81 -77 175 -86 175 -5 0 -11 -7 -15 -16z"/>
</g>
</svg>
